<?xml version="1.0" standalone="no"?>
<!DOCTYPE svg PUBLIC "-//W3C//DTD SVG 20010904//EN"
 "http://www.w3.org/TR/2001/REC-SVG-20010904/DTD/svg10.dtd">
<svg version="1.0" xmlns="http://www.w3.org/2000/svg"
 width="300.000000pt" height="300.000000pt" viewBox="0 0 300.000000 300.000000"
 preserveAspectRatio="xMidYMid meet">
<metadata>
Created by potrace 1.11, written by Peter Selinger 2001-2013
</metadata>
<g transform="translate(0.000000,300.000000) scale(0.100000,-0.100000)"
fill="#000000" stroke="none">
<path d="M1358 2678 c-252 -33 -484 -177 -615 -383 -74 -116 -124 -255 -139
-390 -4 -33 -7 -416 -7 -852 0 -766 1 -792 20 -825 28 -48 88 -68 145 -48 22
8 51 28 62 43 20 28 21 38 21 518 l0 490 54 -61 c119 -134 307 -233 490 -258
105 -13 272 -4 351 21 25 7 50 15 55 17 207 62 406 244 504 462 91 201 101
480 25 698 -53 153 -178 319 -309 413 -61 43 -173 99 -240 120 -115 37 -293
52 -417 35z m336 -248 c196 -67 349 -226 411 -427 7 -24 11 -43 9 -43 -2 0 1
-12 7 -27 10 -27 13 -202 4 -253 -32 -187 -126 -341 -266 -437 -275 -189 -668
-137 -870 115 -151 188 -190 478 -95 713 73 179 245 328 431 373 94 22 283 15
369 -14z"/>
</g>
</svg>
